Coordinates
version=1
nRows=13
nColumns=38
inDegrees=no

Units are S.I. units (second, meters, Newtons, ...)
If the header above contains a line with 'inDegrees', this indicates whether rotational values are in degrees (yes) or radians (no).

endheader
time	pelvis_tilt	pelvis_list	pelvis_rotation	pelvis_tx	pelvis_ty	pelvis_tz	hip_flexion_r	hip_adduction_r	hip_rotation_r	knee_angle_r	ankle_angle_r	subtalar_angle_r	mtp_angle_r	hip_flexion_l	hip_adduction_l	hip_rotation_l	knee_angle_l	ankle_angle_l	subtalar_angle_l	mtp_angle_l	lumbar_extension	lumbar_bending	lumbar_rotation	arm_flex_r	arm_add_r	arm_rot_r	elbow_flex_r	pro_sup_r	wrist_flex_r	wrist_dev_r	arm_flex_l	arm_add_l	arm_rot_l	elbow_flex_l	pro_sup_l	wrist_flex_l	wrist_dev_l
0	3.1392	1.26855	-1.57241	0.70726	-0.400336	0.95114	-0.285136	-0.0935806	-0.442366	0.310636	0.0989344	0	0	-0.424042	0.0132987	-0.225637	0	-0.0217681	0	0	-0.435599	-0.00506797	0.0769164	0.0565369	-0.301289	0.729125	0.498456	0.795009	0	0	0.0525186	-0.255941	0.486964	0.591311	1.31108	0	0
0.01	3.14068	1.28121	-1.57354	0.707327	-0.399562	0.950797	-0.272585	-0.0932241	-0.439974	0.309473	0.0972994	0	0	-0.410812	0.0133262	-0.223555	0	-0.0227022	0	0	-0.420329	-0.00733835	0.0780903	0.0680065	-0.274424	0.711031	0.43692	0.804191	0	0	0.0560105	-0.248951	0.481329	0.571742	1.31387	0	0
0.02	3.14077	1.28229	-1.57373	0.707243	-0.399453	0.950699	-0.271096	-0.0935941	-0.440058	0.310234	0.0976937	0	0	-0.409733	0.0134832	-0.223376	0	-0.0226285	0	0	-0.419451	-0.00755965	0.0787633	0.0664962	-0.271337	0.694789	0.432914	0.819827	0	0	0.056341	-0.248103	0.478786	0.570611	1.3182	0	0
0.03	3.14085	1.28244	-1.57383	0.707159	-0.399378	0.950677	-0.270814	-0.0938396	-0.440144	0.310653	0.0978409	0	0	-0.409641	0.0136249	-0.223164	0	-0.0227967	0	0	-0.419581	-0.00768345	0.0790242	0.0657478	-0.269544	0.685626	0.430399	0.834196	0	0	0.0565053	-0.247871	0.47785	0.570407	1.32185	0	0
0.04	3.14061	1.28227	-1.57372	0.707079	-0.399278	0.950691	-0.270967	-0.0940068	-0.440152	0.310925	0.0980482	0	0	-0.409989	0.0137419	-0.223249	0	-0.0228821	0	0	-0.419989	-0.00770903	0.0792773	0.0653838	-0.268141	0.679369	0.428087	0.845844	0	0	0.0565689	-0.247648	0.477069	0.570239	1.32448	0	0
0.05	3.14009	1.28232	-1.57352	0.707028	-0.399154	0.950681	-0.270928	-0.0940146	-0.439826	0.310945	0.0980185	0	0	-0.4102	0.0137948	-0.223573	0	-0.0227929	0	0	-0.420034	-0.00772605	0.0795986	0.0647338	-0.267263	0.674116	0.427058	0.85549	0	0	0.0565857	-0.247456	0.47656	0.570029	1.32628	0	0
0.06	3.14021	1.28238	-1.57371	0.706948	-0.399021	0.950668	-0.270799	-0.0942277	-0.439766	0.31128	0.0978167	0	0	-0.410354	0.0139083	-0.223636	0	-0.0227574	0	0	-0.42004	-0.00781608	0.0796662	0.0642138	-0.266572	0.670329	0.426262	0.863397	0	0	0.0565504	-0.247315	0.47606	0.569938	1.32753	0	0
0.07	3.14057	1.28273	-1.57411	0.706843	-0.398858	0.950628	-0.270265	-0.0946343	-0.439947	0.312091	0.0979569	0	0	-0.410271	0.0141205	-0.223649	0	-0.0223659	0	0	-0.419661	-0.00787341	0.0796895	0.0638814	-0.266068	0.668264	0.425344	0.869449	0	0	0.0566024	-0.246993	0.475704	0.569363	1.32859	0	0
0.08	3.14027	1.28349	-1.57408	0.706751	-0.398635	0.950534	-0.269331	-0.0949399	-0.439983	0.312761	0.0985424	0	0	-0.409801	0.0142937	-0.223887	0	-0.0219764	0	0	-0.418607	-0.00777654	0.0799781	0.0633804	-0.265659	0.667007	0.424423	0.874276	0	0	0.0564767	-0.246551	0.475382	0.568723	1.32944	0	0
0.09	3.14066	1.28385	-1.57464	0.7067	-0.398429	0.950479	-0.268871	-0.0953556	-0.440063	0.313325	0.0990761	0	0	-0.409718	0.014584	-0.223648	0	-0.0217219	0	0	-0.418054	-0.00799473	0.0801709	0.0629108	-0.265151	0.665578	0.423869	0.877912	0	0	0.0562696	-0.246405	0.474797	0.568868	1.33019	0	0
0.1	-3.14043	1.28364	-1.57656	0.706663	-0.39826	0.950495	-0.269122	-0.0961365	-0.440609	0.313739	0.0994888	0	0	-0.410182	0.0151072	-0.223376	0	-0.0216923	0	0	-0.418264	-0.00871403	0.0797396	0.0627506	-0.264405	0.664408	0.423349	0.880667	0	0	0.0561474	-0.24661	0.474163	0.569352	1.33104	0	0
0.11	-3.1385	1.28357	-1.57835	0.706581	-0.398065	0.950467	-0.269277	-0.096957	-0.441121	0.314151	0.0998898	0	0	-0.410511	0.015647	-0.223184	0	-0.0217098	0	0	-0.418403	-0.00930564	0.0798234	0.0640189	-0.262498	0.662458	0.418427	0.88397	0	0	0.0564046	-0.246608	0.474178	0.569492	1.33197	0	0
0.12	-3.13631	1.28479	-1.5803	0.706455	-0.397803	0.95033	-0.267997	-0.0979165	-0.441549	0.314878	0.100538	0	0	-0.409383	0.016273	-0.223006	0	-0.0218233	0	0	-0.416813	-0.00991134	0.0795269	0.0615542	-0.263401	0.661049	0.422648	0.885962	0	0	0.0561923	-0.246436	0.473886	0.569123	1.33277	0	0
